<?xml version="1.0" standalone="no"?> <!DOCTYPE svg PUBLIC "-//W3C//DTD SVG 1.0//EN" "http://www.w3.org/TR/2001/REC-SVG-20010904/DTD/svg10.dtd" > <svg xmlns="http://www.w3.org/2000/svg" width="100%" height="100%">
<defs >
<font id="false" horiz-adv-x="449" ><font-face
    font-family="false"
    units-per-em="1000"
    panose-1="2 0 5 3 0 0 0 2 0 3"
    ascent="760"
    descent="-240"
    alphabetic="0" />
<missing-glyph horiz-adv-x="500" d="M0 690H500V0H0V690ZM250 301L69 52H430L250 301ZM69 638L250 389L430 638H69ZM218 345L52 574V116L218 345ZM282 345L448 116V574L282 345Z" />
<glyph unicode=" " glyph-name="space" horiz-adv-x="258" />
<glyph unicode="!" glyph-name="exclam" horiz-adv-x="332" d="M251 70Q251 37 228 14T172 -9Q138 -9 116 14T93 70Q93 104 115 126T172 149Q205 149 228 127T251 70ZM103 681H241Q255 681 253 666L217 239Q215 224 201 224H143Q129 224 127 239L91 666Q89 681 103 681Z" />
<glyph unicode="&quot;" glyph-name="quotedbl" horiz-adv-x="362" d="M47 681H140Q160 681 158 658L137 471Q136 449 116 449H71Q53 449 50 471L29 658Q27 681 47 681ZM221 681H315Q335 681 332 658L312 471Q309 449 290 449H246Q227 449 224 471L204 658Q201
681 221 681Z" />
<glyph unicode="#" glyph-name="numbersign" horiz-adv-x="678" d="M616 97H479L445 -65Q440 -80 422 -80H355Q337 -80 341 -57L374 97H232L198 -65Q194 -80 176 -80H109Q91 -80 94 -57L127 97H15Q9 97 5 101T0 113V186Q0 192 4 196T15 201H149L178 337H63Q47
337 47 353V426Q47 432 51 436T63 441H199L234 603Q238 618 257 618H323Q343 618 337 595L304 441H446L481 603Q484 618 503 618H570Q589 618 584 595L551 441H664Q670 441 674 437T679 426V353Q679 346 675 342T664 337H530L501 201H616Q623 201 627 197T632 186V113Q632
97 616 97ZM283 337L254 201H396L425 337H283Z" />
<glyph unicode="$" glyph-name="dollar" horiz-adv-x="600" d="M538 190Q538 101 467 43Q416 2 336 -7V-76Q336 -91 321 -91H282Q276 -91 272 -87T267 -76V-9Q154 -4 66 50Q54 57 60 69L103 158Q108 172 121 163Q217 106 291 106Q340 106 364 125Q391 144 391
179Q391 206 371 222T311 254Q298 258 261 269T196 292T144 318Q64 370 64 462Q64 546 131 596Q183 635 267 642V714Q267 720 271 724T282 729H321Q336 729 336 714V643Q433 637 509 596Q522 590 515 578L473 487Q466 475 454 482Q375 528 298 528Q252 528 230
512Q206 496 206 468Q206 444 226 429T287 400Q301 396 330 388T377 374T420 357T464 333Q538 280 538 190Z" />
<glyph unicode="%" glyph-name="percent" horiz-adv-x="696" d="M260 502T260 536T236 594T177 618T119 594T95 536T119 479T177 455Q212 455 236 478ZM331 599T331 536T286 428T178 383Q115 383 70 427T25 536Q25 599 70 644T178 689Q240 689 285 644ZM435 177T435
143T459 85T519 61Q553 61 576 85T600 143T577 201T519 225Q484 225 460 201ZM365 80T365 143T410 251T518 296Q581 296 626 251T671 143T626 35T518 -10T410 35ZM99 19L515 668Q524 681 537 681H588Q597 681 600 675T598 661L182 12Q174 0 160 0H109Q100 0 97
6T99 19Z" />
<glyph unicode="&amp;" glyph-name="ampersand" horiz-adv-x="689" d="M637 122Q653 118 653 102V4Q653 -10 635 -10Q562 -10 474 44Q396 -10 284 -10Q179 -10 111 40T43 192Q43 307 182 382Q146 452 146 518Q146 592 194 634T330 677Q410 677 455 635T500 526Q500
466 463 423T355 341Q398 271 457 217Q475 253 475 314Q475 331 490 331H585Q601 331 601 314Q601 216 562 148Q598 127 637 122ZM374 528Q374 551 362 564T329 577Q305 577 292 561T278 518Q278 482 300 440Q374 480 374 528ZM296 93Q345 93 379 117Q299 187 236
279Q177 242 177 190Q177 93 296 93Z" />
<glyph unicode="&apos;" glyph-name="quotesingle" horiz-adv-x="188" d="M47 681H140Q160 681 158 658L137 471Q136 449 116 449H71Q53 449 50 471L29 658Q27 681 47 681Z" />
<glyph unicode="(" glyph-name="parenleft" horiz-adv-x="340" d="M47 317Q47 578 164 769Q177 788 198 788H289Q324 788 308 755Q188 537 188 317T308 -119Q324 -152 289 -152H198Q177 -152 164 -133Q47 58 47 317Z" />
<glyph unicode=")" glyph-name="parenright" horiz-adv-x="340" d="M293 317Q293 58 176 -133Q163 -152 142 -152H51Q16 -152 32 -119Q152 97 152 317T32 755Q16 788 51 788H142Q163 788 176 769Q293 578 293 317Z" />
<glyph unicode="*" glyph-name="asterisk" horiz-adv-x="430" d="M321 544L265 532L304 489Q322 469 327 462Q351 429 321 406Q289 382 265 414Q258 423 246 445L215 495L185 445Q169 419 165 414Q141 383 109 406Q80 430 103 462Q108 469 126 489L165 532L109
544Q106 545 93 548T73 553Q57 558 49 571T47 602Q58 637 98 626Q111 622 132 613L184 591L179 648Q179 652 178 659T177 673T176 684Q176 702 186 713T215 725T244 714T254 684L251 648L246 591L298 613Q322 623 332 626Q372 637 383 602Q389 584 381 571T357
553Q350 551 337 548T321 544Z" />
<glyph unicode="+" glyph-name="plus" horiz-adv-x="576" d="M350 583V415H518Q525 415 529 411T534 400V306Q534 291 518 291H350V122Q350 116 346 112T335 107H241Q226 107 226 122V291H58Q43 291 43 306V400Q43 406 47 410T58 415H226V583Q226 598 241 598H335Q341
598 345 594T350 583Z" />
<glyph unicode="," glyph-name="comma" horiz-adv-x="272" d="M225 38Q226 -19 185 -70T86 -138Q71 -142 64 -132L51 -111Q43 -99 55 -90Q108 -55 108 -27Q108 -14 99 -4T78 12T57 34T47 72Q47 107 69 128T129 149Q175 149 199 120T225 38Z" />
<glyph unicode="-" glyph-name="hyphen" horiz-adv-x="521" d="M413 218H108Q102 218 98 222T93 233V327Q93 334 97 338T108 343H413Q419 343 423 339T428 327V233Q428 227 424 223T413 218Z" />
<glyph unicode="." glyph-name="period" horiz-adv-x="251" d="M205 69Q205 36 182 13T126 -10T70 13T47 69Q47 103 70 126T126 149T182 126T205 69Z" />
<glyph unicode="/" glyph-name="slash" horiz-adv-x="409" d="M445 658L116 15Q108 0 93 0H-20Q-30 0 -34 6T-34 22L296 666Q304 681 318 681H431Q442 681 446 674T445 658Z" />
<glyph unicode="0" glyph-name="zero" horiz-adv-x="600" d="M558 340Q558 168 492 79T300 -10T108 79T41 340Q41 513 107 602T300 691T492 602T558 340ZM415 226T415 340T384 509Q355 559 300 559T216 509Q183 453 183 340T215 171Q244 121 300 121Q355 121 384
171Q415 226 415 340Z" />
<glyph unicode="1" glyph-name="one" horiz-adv-x="600" d="M250 539L114 491Q93 485 93 507V599Q93 616 108 621L279 680Q299 686 311 686H379Q394 686 394 671V124H529Q535 124 539 120T544 109V15Q544 9 540 5T529 0H106Q100 0 96 4T91 15V109Q91 115 95 119T106
124H250V539Z" />
<glyph unicode="2" glyph-name="two" horiz-adv-x="600" d="M219 124H505Q512 124 516 120T521 109V15Q521 9 517 5T505 0H80Q65 0 65 15V65Q65 138 82 185T140 273Q177 310 252 349T352 410Q390 443 390 488Q390 523 367 546Q342 571 295 571Q223 571 139 514Q121
504 115 517L75 599Q69 610 81 619Q193 690 307 690Q413 690 476 622Q525 570 525 492Q525 399 455 334Q418 300 349 263T254 205Q219 176 219 124Z" />
<glyph unicode="3" glyph-name="three" horiz-adv-x="600" d="M236 291H192Q177 291 177 306V387Q177 394 181 398T192 403H225Q279 403 311 420Q351 445 351 494Q351 530 325 551Q302 571 268 571Q207 571 139 525Q123 514 116 528L77 606Q70 620 83 628Q178
690 279 690Q362 690 416 646Q479 595 479 511Q479 399 380 356Q504 310 504 182Q504 89 435 37Q372 -10 273 -10Q156 -10 74 42Q62 51 69 62L109 144Q115 157 130 147Q195 103 263 103Q307 103 333 120Q370 144 370 195Q370 249 324 274Q295 291 236 291Z" />
<glyph unicode="4" glyph-name="four" horiz-adv-x="601" d="M453 0H345Q339 0 335 4T330 15V131H41Q26 131 26 146V228Q26 242 35 255L331 669Q340 683 357 683H453Q459 683 463 679T468 667V249H554Q560 249 564 245T569 233V146Q569 131 554 131H468V15Q468
9 464 5T453 0ZM330 466L177 249H330V466Z" />
<glyph unicode="5" glyph-name="five" horiz-adv-x="600" d="M83 311L107 666Q109 681 123 681H480Q486 681 490 677T495 666V572Q495 565 491 561T480 556H228L218 430Q229 437 259 446Q282 452 307 452Q424 452 479 383Q530 323 530 223Q530 127 469 63Q401
-10 276 -10Q158 -10 78 47Q65 55 72 68L110 149Q117 162 129 154Q169 127 199 115T276 103Q332 103 361 138Q390 170 390 222Q390 279 364 308Q336 339 287 339Q248 339 223 321Q199 307 185 283Q178 270 164 275L98 288Q88 290 85 294T83 311Z" />
<glyph unicode="6" glyph-name="six" horiz-adv-x="600" d="M310 318Q238 318 193 267Q200 110 307 110Q351 110 379 139T407 214Q407 268 379 293T310 318ZM53 313Q53 494 128 593Q203 690 338 690Q398 690 447 677Q486 666 527 641Q540 634 533 622L492 536Q486
522 470 531Q445 545 410 557Q375 568 336 568Q267 568 229 507Q202 465 199 393Q223 413 252 424Q287 438 327 438Q439 438 497 367Q545 311 545 218Q545 113 475 50Q409 -10 307 -10Q187 -10 124 63Q53 143 53 313Z" />
<glyph unicode="7" glyph-name="seven" horiz-adv-x="600" d="M71 681H513Q528 681 528 666V583Q528 566 522 553L275 15Q268 0 250 0H131Q106 0 118 25L297 390Q315 426 391 556H181V475Q181 469 177 465T166 460H71Q65 460 61 464T56 475V666Q56 672 60 676T71 681Z" />
<glyph unicode="8" glyph-name="eight" horiz-adv-x="600" d="M415 190Q415 224 385 249T294 300Q187 257 187 190Q187 152 214 125T300 97T387 123T415 190ZM389 511Q389 546 364 566T302 586Q264 586 238 570T212 517Q212 498 220 482T245 454T275 434T309 416Q389
455 389 511ZM423 359Q456 339 474 326T514 290T544 242T554 181Q554 94 487 42T300 -10Q178 -10 112 40T46 178Q46 293 181 359Q148 380 129 396T92 445T73 518Q73 603 139 646T299 690Q388 690 457 647T527 517Q527 475 509 442T473 394T423 359Z" />
<glyph unicode="9" glyph-name="nine" horiz-adv-x="600" d="M405 413Q400 569 292 569Q247 569 220 539T192 465Q192 410 219 385T288 360Q354 360 405 413ZM546 366Q546 185 471 86Q396 -11 261 -11Q201 -11 152 2Q113 13 72 38Q59 45 66 57L107 143Q113 157
129 148Q154 134 189 122Q224 111 263 111Q332 111 370 172Q397 214 400 286Q376 266 347 255Q312 241 272 241Q160 241 102 312Q54 368 54 461Q54 566 124 629Q190 689 292 689Q412 689 475 616Q546 536 546 366Z" />
<glyph unicode=":" glyph-name="colon" horiz-adv-x="261" d="M210 69Q210 36 187 13T131 -10T75 13T51 69Q51 103 74 126T131 149T187 126T210 69ZM210 420T210 387T187 331T131 308T75 331T51 387T74 443T131 467T187 444Z" />
<glyph unicode=";" glyph-name="semicolon" horiz-adv-x="261" d="M216 420T216 387T193 331T137 308T81 331T58 387T81 443T137 467T193 444ZM228 38Q229 -19 188 -70T90 -138Q75 -142 68 -132L55 -111Q47 -99 59 -90Q112 -55 112 -27Q112 -14 103 -4T82 12T61
34T51 72Q51 107 73 128T132 149Q179 149 203 120T228 38Z" />
<glyph unicode="&lt;" glyph-name="less" horiz-adv-x="630" d="M48 291V415Q48 433 63 438L552 628Q573 635 573 616V506Q573 487 557 481L198 353L557 225Q573 219 573 200V90Q573 71 552 78L63 267Q48 272 48 291Z" />
<glyph unicode="=" glyph-name="equal" horiz-adv-x="577" d="M518 174H58Q52 174 48 178T43 189V283Q43 289 47 293T58 298H518Q525 298 529 294T534 283V189Q534 183 530 179T518 174ZM518 406H58Q52 406 48 410T43 421V515Q43 521 47 525T58 530H518Q525 530
529 526T534 515V421Q534 415 530 411T518 406Z" />
<glyph unicode="&gt;" glyph-name="greater" horiz-adv-x="633" d="M582 415V291Q582 272 567 267L77 78Q56 70 56 90V200Q56 219 73 225L432 353L73 481Q56 487 56 506V616Q56 636 77 628L567 438Q582 433 582 415Z" />
<glyph unicode="?" glyph-name="question" horiz-adv-x="522" d="M261 574Q215 574 176 555T89 499Q85 496 79 497T70 505L31 581Q27 591 38 602Q144 691 267 691Q362 691 424 635Q485 580 485 497Q485 444 462 408T384 333Q339 302 325 279T307 219Q307 212 302
208T289 203H219Q207 203 199 217Q188 243 188 270Q188 313 230 360Q241 371 254 382T287 410T317 435Q351 463 351 497Q351 533 325 554Q298 574 261 574ZM329 69Q329 36 307 13T250 -10Q217 -10 194 13T171 69Q171 103 194 126T250 149Q284 149 306 126T329 69Z"
/>
<glyph unicode="@" glyph-name="at" horiz-adv-x="802" d="M497 243V332Q399 327 358 308Q312 288 312 251Q312 223 334 206T392 189Q464 189 497 243ZM425 38Q495 38 561 53T667 90Q683 99 689 84L699 55Q703 44 691 36Q646 11 571 -4T425 -19Q260 -19 153 80T46
339Q46 484 156 587T421 691Q564 691 659 610T755 393Q755 288 704 212T570 136Q518 136 507 180Q468 134 391 134Q338 134 297 159Q245 194 245 254Q245 334 349 367Q403 382 496 387Q496 431 473 456Q448 481 406 481Q358 481 299 447Q284 437 277 451L263 479Q258
491 270 499Q335 543 406 543Q472 543 515 505Q563 464 563 381V220Q563 193 585 193Q625 193 661 243T697 390Q697 503 619 569T422 635Q291 635 198 547T104 336Q104 202 194 120T425 38Z" />
<glyph unicode="A" glyph-name="A" horiz-adv-x="693" d="M404 556T346 556T252 520Q210 476 210 400V336H483V400Q483 476 442 520Q404 556 346 556ZM627 406V15Q627 9 623 5T612 0H498Q492 0 488 4T483 15V208H210V15Q210 9 206 5T195 0H81Q75 0 71 4T66 15V406Q66
470 91 529T166 629Q239 690 346 690Q454 690 527 629Q577 589 602 530T627 406Z" />
<glyph unicode="B" glyph-name="B" horiz-adv-x="619" d="M577 184Q577 95 510 48T349 0H83Q76 0 72 4T67 15V666Q67 672 71 676T83 681H289Q395 681 455 638Q521 589 521 508Q521 402 436 363V359Q577 326 577 184ZM376 483Q376 527 345 548Q322 564 288 564H211V404H279Q317
404 338 414Q376 433 376 483ZM430 203Q430 255 383 276Q359 288 298 288H211V117H318Q360 117 382 127Q430 148 430 203Z" />
<glyph unicode="C" glyph-name="C" horiz-adv-x="654" d="M402 -10Q237 -10 139 85T40 341Q40 490 145 590T405 690Q519 690 611 643Q624 635 618 622L572 526Q566 513 552 520Q472 560 402 560Q315 560 253 497T191 341Q191 244 251 183T403 121Q483 121 558
161Q571 167 576 156L622 58Q628 45 615 39Q519 -10 402 -10Z" />
<glyph unicode="D" glyph-name="D" horiz-adv-x="742" d="M701 341Q701 135 549 49Q461 0 325 0H83Q76 0 72 4T67 15V666Q67 672 71 676T83 681H338Q521 681 619 577Q701 490 701 341ZM211 560V121H315Q397 121 452 148Q554 199 554 341Q554 441 502 496Q442 560
318 560H211Z" />
<glyph unicode="E" glyph-name="E" horiz-adv-x="618" d="M83 681H565Q572 681 576 677T581 666V568Q581 562 577 558T565 553H211V406H513Q519 406 523 402T528 391V294Q528 287 524 283T513 278H211V127H565Q581 127 581 112V15Q581 9 577 5T565 0H83Q76 0 72
4T67 15V666Q67 672 71 676T83 681Z" />
<glyph unicode="F" glyph-name="F" horiz-adv-x="581" d="M211 278V15Q211 0 196 0H83Q76 0 72 4T67 15V666Q67 672 71 676T83 681H536Q542 681 546 677T551 666V568Q551 562 547 558T536 553H211V406H491Q497 406 501 402T506 391V294Q506 287 502 283T491 278H211Z" />
<glyph unicode="G" glyph-name="G" horiz-adv-x="746" d="M405 690Q519 690 611 643Q624 635 618 622L572 526Q567 514 552 520Q461 560 402 560Q313 560 252 497T190 341Q190 243 249 181T402 118Q487 118 547 157V240H409Q403 240 399 244T394 255V353Q394 359
398 363T409 368H668Q683 368 683 353V15Q683 0 668 0H562Q556 0 552 4T547 15V27Q480 -10 387 -10Q236 -10 138 83T40 341Q40 489 146 589T405 690Z" />
<glyph unicode="H" glyph-name="H" horiz-adv-x="733" d="M536 681H650Q656 681 660 677T665 666V15Q665 9 661 5T650 0H536Q530 0 526 4T521 15V279H211V15Q211 0 196 0H83Q76 0 72 4T67 15V666Q67 672 71 676T83 681H196Q211 681 211 666V406H521V666Q521 672
525 676T536 681Z" />
<glyph unicode="I" glyph-name="I" horiz-adv-x="279" d="M83 681H196Q211 681 211 666V15Q211 0 196 0H83Q76 0 72 4T67 15V666Q67 672 71 676T83 681Z" />
<glyph unicode="J" glyph-name="J" horiz-adv-x="533" d="M207 -10Q98 -10 16 57Q5 65 13 78L66 168Q74 180 86 170Q146 117 205 117Q260 117 289 145Q323 179 323 260V666Q323 672 327 676T338 681H452Q458 681 462 677T467 666V247Q467 110 385 44Q318 -10 207 -10Z" />
<glyph unicode="K" glyph-name="K" horiz-adv-x="654" d="M466 15L266 280L211 224V15Q211 0 196 0H83Q76 0 72 4T67 15V666Q67 672 71 676T83 681H196Q211 681 211 666V407L446 666Q460 681 477 681H622Q632 681 634 674T629 658L367 386L637 26Q645 18 644 9T629
0H495Q477 0 466 15Z" />
<glyph unicode="L" glyph-name="L" horiz-adv-x="542" d="M83 681H196Q211 681 211 666V127H502Q518 127 518 112V15Q518 9 514 5T502 0H83Q76 0 72 4T67 15V666Q67 672 71 676T83 681Z" />
<glyph unicode="M" glyph-name="M" horiz-adv-x="840" d="M772 666V15Q772 9 768 5T756 0H648Q641 0 637 4T632 15V431L487 178Q478 162 463 162H380Q365 162 356 178L207 431V15Q207 9 203 5T191 0H83Q76 0 72 4T67 15V666Q67 672 71 676T83 681H197Q216 681
225 665L419 328L614 665Q622 681 641 681H756Q763 681 767 677T772 666Z" />
<glyph unicode="N" glyph-name="N" horiz-adv-x="743" d="M537 239V666Q537 672 541 676T552 681H660Q666 681 670 677T675 666V15Q675 9 671 5T660 0H560Q542 0 532 15L205 441V15Q205 9 201 5T190 0H83Q76 0 72 4T67 15V666Q67 672 71 676T83 681H183Q198 681
210 665L537 239Z" />
<glyph unicode="O" glyph-name="O" horiz-adv-x="810" d="M769 494T769 339T665 87T405 -10T145 87T40 339Q40 495 144 592T405 690Q560 690 664 592ZM616 247T616 339T556 493T405 555T254 493T193 339T253 186T405 124T556 185Z" />
<glyph unicode="P" glyph-name="P" horiz-adv-x="646" d="M466 443Q466 507 423 535Q392 555 347 555H211V331H344Q394 331 421 349Q466 376 466 443ZM83 681H366Q467 681 529 630Q612 562 612 443Q612 320 522 251Q462 205 366 205H211V15Q211 0 196 0H83Q76
0 72 4T67 15V666Q67 672 71 676T83 681Z" />
<glyph unicode="Q" glyph-name="Q" horiz-adv-x="809" d="M786 -73Q807 -76 798 -93L746 -186Q740 -199 722 -199T674 -192T601 -170T520 -141T423 -104T326 -68Q310 -63 310 -42V2Q192 30 116 121T40 339Q40 492 147 591T405 690T662 591T769 339Q769 214 695
124T506 4Q506 -5 517 -8Q677 -58 786 -73ZM616 247T616 339T556 493T405 555T254 493T193 339T253 186T405 124T556 185Z" />
<glyph unicode="R" glyph-name="R" horiz-adv-x="665" d="M550 293Q524 271 489 256L637 26Q652 0 628 0H503Q482 0 474 15L340 236H211V15Q211 0 196 0H83Q76 0 72 4T67 15V666Q67 672 71 676T83 681H375Q485 681 547 635Q626 577 626 460Q626 357 550 293ZM363
559H211V358H351Q413 358 439 375Q480 401 480 458Q480 514 442 540Q412 559 363 559Z" />
<glyph unicode="S" glyph-name="S" horiz-adv-x="579" d="M282 -10Q145 -10 38 54Q26 61 32 73L78 170Q85 184 97 176Q195 114 280 114Q331 114 358 134Q387 155 387 192Q387 243 302 272Q286 278 248 289T179 313T122 341Q37 397 37 496Q37 586 108 639Q177 690
296 690Q419 690 514 638Q527 631 520 619L474 522Q467 510 455 517Q367 565 288 565Q241 565 214 548Q189 530 189 502Q189 476 211 460T276 429Q290 425 322 416T373 401T419 383T466 357Q544 303 544 204Q544 104 469 47Q397 -10 282 -10Z" />
<glyph unicode="T" glyph-name="T" horiz-adv-x="599" d="M23 681H575Q582 681 586 677T591 666V568Q591 562 587 558T575 553H371V15Q371 9 367 5T356 0H242Q236 0 232 4T227 15V553H23Q17 553 13 557T8 568V666Q8 672 12 676T23 681Z" />
<glyph unicode="U" glyph-name="U" horiz-adv-x="724" d="M513 286V666Q513 672 517 676T529 681H642Q657 681 657 666V269Q657 152 595 81Q515 -10 361 -10T129 81Q66 153 66 269V666Q66 672 70 676T81 681H195Q201 681 205 677T210 666V286Q210 209 244 169Q283
122 361 122Q441 122 480 169Q513 210 513 286Z" />
<glyph unicode="V" glyph-name="V" horiz-adv-x="678" d="M674 660L420 12Q415 -3 397 -3H277Q258 -3 253 12L5 660Q-4 681 17 681H138Q157 681 163 664L336 178H338L517 664Q523 681 542 681H662Q671 681 674 675T674 660Z" />
<glyph unicode="W" glyph-name="W" horiz-adv-x="1046" d="M835 248V666Q835 672 839 676T850 681H964Q970 681 974 677T979 666V246Q979 125 910 59Q841 -9 715 -9Q654 -9 605 12Q555 35 523 79Q490 34 440 12Q391 -9 330 -9Q204 -9 135 59Q66 125 66 246V666Q66
672 70 676T81 681H195Q201 681 205 677T210 666V248Q210 187 242 155T330 123Q388 123 418 156Q451 194 451 267V666Q451 681 466 681H579Q586 681 590 677T595 666V267Q595 193 627 156Q657 123 715 123T804 155Q835 188 835 248Z" />
<glyph unicode="X" glyph-name="X" horiz-adv-x="701" d="M442 342L695 24Q703 15 700 8T685 0H536Q521 0 510 14L351 231L191 14Q182 0 166 0H16Q4 0 1 7T6 24L263 339L11 656Q4 665 7 673T22 681H172Q187 681 197 666L352 456L502 666Q514 681 529 681H680Q692
681 695 673T690 656L442 342Z" />
<glyph unicode="Y" glyph-name="Y" horiz-adv-x="660" d="M329 426L487 666Q496 681 513 681H644Q656 681 658 674T654 656L401 283V15Q401 9 397 5T386 0H272Q266 0 262 4T257 15V284L6 656Q-1 666 1 673T16 681H147Q164 681 172 666L329 426Z" />
<glyph unicode="Z" glyph-name="Z" horiz-adv-x="617" d="M12 22L354 553H44Q38 553 34 557T29 568V666Q29 672 33 676T44 681H577Q592 681 592 668Q592 664 589 659L247 127H583Q599 127 599 112V15Q599 9 595 5T583 0H24Q9 0 9 13Q9 18 12 22Z" />
<glyph unicode="[" glyph-name="bracketleft" horiz-adv-x="395" d="M347 -152H80Q65 -152 65 -137V773Q65 788 80 788H347Q362 788 362 773V683Q362 667 347 667H206V-32H347Q362 -32 362 -47V-137Q362 -152 347 -152Z" />
<glyph unicode="\" glyph-name="backslash" horiz-adv-x="330" d="M153 660L331 22Q338 0 317 0H222Q202 0 195 20L17 658Q11 681 32 681H127Q147 681 153 660Z" />
<glyph unicode="]" glyph-name="bracketright" horiz-adv-x="395" d="M315 -153H48Q32 -153 32 -137V-47Q32 -41 36 -37T48 -32H189V667H48Q32 667 32 683V773Q32 779 36 783T48 788H315Q321 788 325 784T330 773V-137Q330 -144 326 -148T315 -153Z" />
<glyph unicode="^" glyph-name="asciicircum" horiz-adv-x="563" d="M250 716H313Q328 716 338 701L528 410Q533 405 530 397T516 389H420Q405 389 395 406L282 581L169 406Q157 389 143 389H47Q37 389 34 397T36 410L225 701Q236 716 250 716Z" />
<glyph unicode="_" glyph-name="underscore" horiz-adv-x="459" d="M459 -156H0Q-15 -156 -15 -141V-72Q-15 -57 0 -57H459Q474 -57 474 -72V-141Q474 -147 470 -151T459 -156Z" />
<glyph unicode="`" glyph-name="grave" horiz-adv-x="465" d="M139 764H230Q244 764 251 749L327 595Q339 568 318 568H249Q236 568 226 584L129 741Q123 749 126 756T139 764Z" />
<glyph unicode="a" glyph-name="a" horiz-adv-x="486" d="M229 365Q168 365 104 329Q88 320 82 334L53 397Q48 409 59 417Q138 467 245 467Q343 467 390 415Q430 370 430 293V15Q430 9 426 5T415 0H327Q320 0 316 4T311 15V23H307Q255 -10 185 -10Q121 -10 79
27Q34 64 34 131Q34 209 117 247Q179 274 298 283V293Q298 328 284 345Q268 365 229 365ZM228 88Q267 88 298 107V194Q160 189 160 135Q160 112 179 100T228 88Z" />
<glyph unicode="b" glyph-name="b" horiz-adv-x="551" d="M80 1Q65 4 65 19V666Q65 681 80 681H182Q188 681 192 677T197 666V452Q242 467 294 467Q392 467 453 401Q513 338 513 228Q513 132 458 70Q386 -10 235 -10Q131 -10 80 1ZM197 342V101Q213 99 247 99Q318
99 353 144Q379 178 379 228Q379 286 347 321Q314 355 266 355Q231 355 197 342Z" />
<glyph unicode="c" glyph-name="c" horiz-adv-x="479" d="M295 101Q345 101 394 129Q409 138 416 125L453 53Q459 43 447 34Q387 -10 292 -10Q167 -10 97 63Q37 128 37 229Q37 315 87 376Q160 466 295 466Q381 466 445 421Q457 413 451 401L412 328Q406 315 390
324Q342 354 295 354Q239 354 204 316Q172 281 172 229Q172 173 205 138Q239 101 295 101Z" />
<glyph unicode="d" glyph-name="d" horiz-adv-x="547" d="M320 110H350V347Q322 354 289 354Q229 354 197 309Q173 278 173 228Q173 170 209 141Q246 110 320 110ZM467 0H306Q181 0 109 60Q37 121 37 226Q37 323 88 385Q153 467 281 467Q321 467 350 459V666Q350
672 354 676T365 681H467Q473 681 477 677T482 666V15Q482 9 478 5T467 0Z" />
<glyph unicode="e" glyph-name="e" horiz-adv-x="525" d="M176 276H363Q362 311 341 336Q316 363 273 363Q225 363 201 336Q181 313 176 276ZM296 95Q353 95 407 126Q424 135 430 122L465 57Q470 46 458 37Q429 17 382 4T286 -10Q171 -10 104 57Q37 122 37 234Q37
334 104 403Q166 467 272 467Q390 467 449 387Q493 327 491 204Q491 189 476 189H177Q184 151 207 128Q238 95 296 95Z" />
<glyph unicode="f" glyph-name="f" horiz-adv-x="370" d="M275 574Q248 574 233 556Q219 538 219 497V458H319Q335 458 335 443V370Q335 354 319 354H219V15Q219 9 215 5T204 0H102Q96 0 92 4T87 15V354H36Q30 354 26 358T21 370V443Q21 458 36 458H87V511Q87
602 133 648Q174 689 245 689Q340 689 399 645Q410 637 405 625L370 552Q363 540 348 548Q307 574 275 574Z" />
<glyph unicode="g" glyph-name="g" horiz-adv-x="564" d="M266 -128Q316 -128 341 -104Q367 -76 367 -27V18Q321 -8 256 -8Q165 -8 105 50Q37 116 37 230Q37 336 100 404Q160 467 255 467Q314 467 368 430H371V443Q371 458 386 458H484Q499 458 499 443V-10Q499
-131 431 -189Q372 -238 264 -238Q157 -238 85 -188Q74 -178 78 -168L117 -92Q125 -78 140 -88Q200 -128 266 -128ZM272 101Q324 101 367 130V319Q319 354 275 354Q229 354 203 325Q172 288 172 228Q172 163 202 130Q229 101 272 101Z" />
<glyph unicode="h" glyph-name="h" horiz-adv-x="576" d="M387 244Q387 306 364 331Q344 354 304 354Q250 354 224 313T197 215V15Q197 9 193 5T182 0H80Q65 0 65 15V666Q65 681 80 681H182Q188 681 192 677T197 666V412Q251 467 333 467Q418 467 467 422Q520
374 520 278V15Q520 0 505 0H402Q396 0 392 4T387 15V244Z" />
<glyph unicode="i" glyph-name="i" horiz-adv-x="262" d="M65 443Q65 458 80 458H182Q197 458 197 443V15Q197 9 193 5T182 0H80Q65 0 65 15V443ZM131 584Q99 584 77 606T55 660T77 714T131 736Q162 736 184 714T206 660T184 606T131 584Z" />
<glyph unicode="j" glyph-name="j" horiz-adv-x="261" d="M206 692T206 660T184 606T130 584T76 606T54 660T76 714T130 736T184 714ZM64 37V443Q64 449 68 453T80 458H182Q188 458 192 454T197 443V35Q197 -172 86 -236Q70 -244 60 -234L-10 -164Q-20 -154 -6
-144Q34 -114 49 -78T64 37Z" />
<glyph unicode="k" glyph-name="k" horiz-adv-x="539" d="M369 15L247 182L197 135V15Q197 9 193 5T182 0H80Q65 0 65 15V666Q65 681 80 681H182Q188 681 192 677T197 666V278L359 445Q371 458 388 458H508Q520 458 523 449T518 433L339 267L524 24Q531 16 529
8T513 0H395Q379 0 369 15Z" />
<glyph unicode="l" glyph-name="l" horiz-adv-x="262" d="M65 666Q65 681 80 681H182Q188 681 192 677T197 666V15Q197 9 193 5T182 0H80Q65 0 65 15V666Z" />
<glyph unicode="m" glyph-name="m" horiz-adv-x="835" d="M193 426H196Q242 466 309 466Q403 466 452 400Q506 466 600 466Q681 466 729 421Q779 376 779 281V15Q779 9 775 5T764 0H662Q647 0 647 15V248Q647 303 627 330Q607 355 569 355Q527 355 506 319Q488
288 488 222V15Q488 9 484 5T473 0H371Q356 0 356 15V248Q356 303 336 330Q316 355 278 355Q237 355 215 319Q199 290 197 225V15Q197 9 193 5T182 0H80Q65 0 65 15V443Q65 458 80 458H178Q193 458 193 443V426Z" />
<glyph unicode="n" glyph-name="n" horiz-adv-x="576" d="M193 412H196Q250 467 333 467Q418 467 467 422Q520 374 520 278V15Q520 0 505 0H402Q396 0 392 4T387 15V244Q387 306 364 331Q344 354 304 354Q250 354 224 313T197 215V15Q197 9 193 5T182 0H80Q65
0 65 15V443Q65 458 80 458H178Q193 458 193 443V412Z" />
<glyph unicode="o" glyph-name="o" horiz-adv-x="570" d="M167 284T167 228T199 137T284 101T369 136T401 228T369 319T284 355T199 320ZM37 119T37 228T107 402T284 467Q391 467 461 402T532 228T462 55T284 -10T107 54Z" />
<glyph unicode="p" glyph-name="p" horiz-adv-x="549" d="M197 355V107Q221 98 253 98Q311 98 344 127Q380 160 380 228Q380 285 348 322Q314 359 254 359Q220 359 197 355ZM80 451Q140 467 241 467Q375 467 447 395Q511 333 511 228Q511 127 457 65Q390 -10 267
-10Q226 -10 197 -2V-219Q197 -226 193 -230T182 -235H80Q65 -235 65 -219V433Q65 446 80 451Z" />
<glyph unicode="q" glyph-name="q" horiz-adv-x="548" d="M350 211V352Q323 357 296 357Q228 357 193 311Q168 278 168 227Q168 167 195 132Q221 98 267 98Q350 98 350 211ZM244 -10Q157 -10 101 46Q37 110 37 225Q37 326 95 387Q169 467 307 467Q402 467 466
446Q483 441 483 426V-219Q483 -226 479 -230T468 -235H366Q350 -235 350 -219V23Q311 -10 244 -10Z" />
<glyph unicode="r" glyph-name="r" horiz-adv-x="426" d="M284 351Q197 351 197 225V15Q197 9 193 5T182 0H80Q65 0 65 15V443Q65 458 80 458H178Q193 458 193 443V416H196Q239 467 308 467Q376 467 420 429Q431 419 425 408L388 329Q381 316 365 325Q322 351 284 351Z" />
<glyph unicode="s" glyph-name="s" horiz-adv-x="430" d="M202 93Q255 93 255 129Q255 144 245 152T212 170Q201 175 168 188T116 210Q42 246 42 330Q42 394 90 430T225 467Q317 467 380 432Q394 425 386 412L350 338Q344 327 332 333Q279 362 229 362Q182 362
182 330Q182 308 226 291Q317 254 319 253Q394 217 394 137Q394 73 343 32T205 -10Q106 -10 40 28Q26 36 33 47L70 124Q76 136 89 130Q153 93 202 93Z" />
<glyph unicode="t" glyph-name="t" horiz-adv-x="393" d="M213 354V180Q213 147 223 128Q235 104 269 104Q302 104 334 129Q350 141 355 127L390 53Q396 42 384 33Q323 -10 234 -10Q154 -10 117 34Q81 79 81 162V354H31Q25 354 21 358T16 370V443Q16 458 31 458H81V548Q81
563 96 563H198Q213 563 213 548V458H339Q354 458 354 443V370Q354 354 339 354H213Z" />
<glyph unicode="u" glyph-name="u" horiz-adv-x="567" d="M57 197V443Q57 458 72 458H174Q189 458 189 443V206Q189 169 202 144Q224 102 283 102Q341 102 365 144Q378 169 378 206V443Q378 458 393 458H495Q510 458 510 443V197Q510 113 470 62Q413 -10 283 -10Q154
-10 97 62Q57 113 57 197Z" />
<glyph unicode="v" glyph-name="v" horiz-adv-x="500" d="M495 437L327 12Q322 -3 304 -3H186Q167 -3 162 12L4 437Q-3 458 16 458H124Q144 458 149 442L251 126H253L352 442Q356 458 377 458H483Q504 458 495 437Z" />
<glyph unicode="w" glyph-name="w" horiz-adv-x="807" d="M750 443V198Q750 113 719 64Q673 -10 559 -10Q488 -10 443 23Q418 42 404 62Q386 37 365 22Q319 -10 249 -10Q136 -10 88 63Q57 114 57 198V443Q57 458 72 458H174Q189 458 189 443V202Q189 161 202 135Q218
104 261 104Q310 104 328 147Q338 170 338 205V443Q338 458 353 458H455Q470 458 470 443V205Q470 170 480 147Q498 104 548 104Q590 104 606 135Q619 158 619 202V443Q619 458 634 458H735Q750 458 750 443Z" />
<glyph unicode="x" glyph-name="x" horiz-adv-x="533" d="M6 24L184 234L16 434Q8 442 11 450T26 458H153Q166 458 178 443L266 325L356 443Q366 458 382 458H504Q516 458 518 451T514 434L345 243L527 24Q535 15 532 8T517 0H393Q378 0 367 14L266 142L166 14Q154
0 140 0H16Q4 0 1 7T6 24Z" />
<glyph unicode="y" glyph-name="y" horiz-adv-x="535" d="M530 437L356 -25Q321 -122 264 -173Q186 -243 62 -236Q50 -236 50 -224V-123Q50 -111 62 -111Q65 -111 75 -112T93 -113Q137 -113 168 -89Q194 -67 214 -32L5 437Q-4 458 17 458H140Q160 458 165 442L282
133L380 442Q385 458 405 458H518Q537 458 530 437Z" />
<glyph unicode="z" glyph-name="z" horiz-adv-x="446" d="M421 0H21Q-2 0 12 20L228 343H35Q28 343 24 347T19 358V443Q19 458 35 458H423Q432 458 435 452T433 437L219 116H421Q427 116 431 112T436 101V15Q436 9 432 5T421 0Z" />
<glyph unicode="{" glyph-name="braceleft" horiz-adv-x="382" d="M45 271V362Q45 377 60 377H65Q101 377 119 403Q141 434 141 507L138 612Q138 690 176 732Q224 786 331 786Q349 786 349 771V698Q349 683 334 683Q297 683 277 658Q262 636 262 589L264 492Q264
406 227 365Q201 335 153 317Q199 298 227 269Q264 226 264 142L262 44Q262 -1 277 -25Q296 -50 334 -50Q349 -50 349 -65V-137Q349 -153 331 -153Q224 -153 176 -99Q138 -57 138 22L141 126Q141 198 119 229Q101 256 65 256H60Q45 256 45 271Z" />
<glyph unicode="|" glyph-name="bar" horiz-adv-x="268" d="M83 681H185Q191 681 195 677T200 666V-203Q200 -209 196 -213T185 -218H83Q76 -218 72 -214T67 -203V666Q67 672 71 676T83 681Z" />
<glyph unicode="}" glyph-name="braceright" horiz-adv-x="382" d="M337 362V271Q337 256 322 256H317Q281 256 263 229Q241 198 241 126L244 22Q244 -57 206 -99Q158 -153 51 -153Q33 -153 33 -137V-65Q33 -50 48 -50Q86 -50 105 -25Q120 -1 120 44L118 142Q118
226 155 269Q183 298 229 317Q181 335 155 365Q118 406 118 492L120 589Q120 636 105 658Q85 683 48 683Q33 683 33 698V771Q33 786 51 786Q158 786 206 732Q244 690 244 612L241 507Q241 434 263 403Q281 377 317 377H322Q337 377 337 362Z" />
<glyph unicode="~" glyph-name="asciitilde" horiz-adv-x="660" d="M438 191Q392 191 354 213T286 258T229 280Q169 280 169 217Q169 201 152 201H63Q48 201 48 217Q48 304 93 355T222 406Q259 406 291 392T342 362T385 331T431 317Q491 317 491 380Q491 395 508
395H597Q612 395 612 380Q612 292 567 242T438 191Z" />
</font>
</defs>
</svg>
