<?xml version="1.0" standalone="no"?> <!DOCTYPE svg PUBLIC "-//W3C//DTD SVG 1.0//EN" "http://www.w3.org/TR/2001/REC-SVG-20010904/DTD/svg10.dtd" > <svg xmlns="http://www.w3.org/2000/svg" width="100%" height="100%">
<defs >
<font id="false" horiz-adv-x="428" ><font-face
    font-family="false"
    units-per-em="1000"
    panose-1="2 0 6 3 0 0 0 2 0 3"
    ascent="760"
    descent="-240"
    alphabetic="0" />
<missing-glyph horiz-adv-x="500" d="M0 690H500V0H0V690ZM250 301L69 52H430L250 301ZM69 638L250 389L430 638H69ZM218 345L52 574V116L218 345ZM282 345L448 116V574L282 345Z" />
<glyph unicode=" " glyph-name="space" horiz-adv-x="254" />
<glyph unicode="!" glyph-name="exclam" horiz-adv-x="260" d="M184 56T184 37T171 5T138 -9T105 4T92 37T105 69T138 83T171 70ZM102 681H175Q185 681 183 671L164 201Q164 191 155 191H122Q113 191 113 201L93 671Q93 681 102 681Z" />
<glyph unicode="&quot;" glyph-name="quotedbl" horiz-adv-x="284" d="M49 681H100Q114 681 112 664L100 491Q99 476 86 476H62Q49 476 48 491L37 664Q35 681 49 681ZM184 681H235Q249 681 247 664L235 491Q234 476 222 476H197Q184 476 184 491L172 664Q170 681
184 681Z" />
<glyph unicode="#" glyph-name="numbersign" horiz-adv-x="680" d="M622 121H461L421 -69Q418 -79 408 -79H371Q358 -79 362 -66L401 121H214L174 -69Q173 -79 161 -79H124Q113 -79 116 -66L155 121H9Q0 121 0 130V170Q0 179 9 179H167L206 361H58Q49 361 49 370V410Q49
419 58 419H218L258 609Q260 619 272 619H308Q319 619 317 604L277 419H464L505 609Q508 619 519 619H554Q566 619 563 604L523 419H670Q680 419 680 410V370Q680 361 670 361H511L473 179H622Q631 179 631 170V130Q631 121 622 121ZM265 361L227 179H414L452 361H265Z"
/>
<glyph unicode="$" glyph-name="dollar" horiz-adv-x="600" d="M521 179Q521 88 454 37Q404 -3 322 -9V-74Q322 -83 312 -83H290Q280 -83 280 -74V-10Q168 -6 80 51Q71 56 75 64L98 112Q101 120 111 115Q140 97 158 87T215 66T293 54Q359 54 398 82Q440 115 440
173Q440 235 359 270Q336 280 274 298T174 335Q80 382 80 474Q80 553 135 596Q187 640 280 643V710Q280 720 290 720H312Q322 720 322 710V644Q422 641 490 600Q498 596 494 587L472 540Q467 532 458 537Q385 580 301 580Q223 580 187 547Q158 522 158 476Q158
443 181 421T250 383Q266 377 334 357T438 317Q521 268 521 179Z" />
<glyph unicode="%" glyph-name="percent" horiz-adv-x="650" d="M288 490T288 536T256 614T177 647T99 615T66 536T98 458T177 425Q224 425 256 457ZM331 599T331 536T286 428T178 383Q115 383 70 427T25 536Q25 599 70 644T178 689Q240 689 285 644ZM361 143Q361
96 393 64T473 31Q519 31 551 63T583 143Q583 189 551 221T473 254T394 222T361 143ZM319 80T319 143T364 251T472 296Q535 296 580 251T625 143T580 35T472 -10T364 35ZM89 11L513 673Q518 681 526 681H556Q562 681 563 678T562 669L138 7Q134 0 125 0H95Q82 0
89 11Z" />
<glyph unicode="&amp;" glyph-name="ampersand" horiz-adv-x="655" d="M624 63Q634 63 634 51V-1Q634 -10 623 -10Q556 -10 462 56Q388 -10 275 -10Q173 -10 108 38T43 185Q43 299 192 375Q149 458 149 521Q149 594 192 635T309 677Q379 677 418 639T458 538Q458
504 445 476T403 425T352 388T288 352Q352 240 453 152Q494 212 494 314Q494 324 503 324H554Q564 324 564 314Q564 191 511 113Q577 63 624 63ZM388 537Q388 575 367 596T308 618Q269 618 246 592T222 519Q222 470 257 408Q288 424 302 431T341 456T377 494T388
537ZM281 48Q360 48 409 97Q297 193 222 318Q117 262 117 184Q117 116 161 82T281 48Z" />
<glyph unicode="&apos;" glyph-name="quotesingle" horiz-adv-x="149" d="M49 681H100Q114 681 112 664L100 491Q99 476 86 476H62Q49 476 48 491L37 664Q35 681 49 681Z" />
<glyph unicode="(" glyph-name="parenleft" horiz-adv-x="273" d="M51 318Q51 594 168 776Q176 788 188 788H236Q258 788 247 768Q129 569 129 318T247 -133Q258 -152 236 -152H188Q175 -152 168 -141Q51 41 51 318Z" />
<glyph unicode=")" glyph-name="parenright" horiz-adv-x="273" d="M222 318Q222 41 105 -141Q98 -152 85 -152H37Q15 -152 26 -133Q144 67 144 318T26 768Q15 788 37 788H85Q98 788 105 776Q222 594 222 318Z" />
<glyph unicode="*" glyph-name="asterisk" horiz-adv-x="423" d="M317 562L241 542L291 480Q311 456 317 449Q333 426 315 411Q295 397 277 420Q275 423 272 428T264 439T255 453L211 520L168 453Q150 425 146 420Q128 398 109 411Q89 426 107 449Q113 457 132
480L182 542L105 562L67 572Q38 581 47 604Q53 628 82 618Q102 612 120 605L194 576L189 656Q187 692 187 696Q187 725 211 725Q236 725 236 696Q236 692 234 656L230 576L304 605Q321 612 341 618Q369 628 376 604Q384 580 356 572Q351 570 338 567T317 562Z"
/>
<glyph unicode="+" glyph-name="plus" horiz-adv-x="560" d="M314 584V387H512Q521 387 521 378V328Q521 318 512 318H314V121Q314 111 305 111H255Q245 111 245 121V318H48Q39 318 39 328V378Q39 387 48 387H245V584Q245 594 255 594H305Q314 594 314 584Z" />
<glyph unicode="," glyph-name="comma" horiz-adv-x="196" d="M152 15Q153 -19 130 -50T74 -95Q64 -98 59 -92L51 -80Q47 -72 55 -66Q85 -43 85 -25Q85 -14 67 1T49 38Q49 58 61 70T96 82Q150 82 152 15Z" />
<glyph unicode="-" glyph-name="hyphen" horiz-adv-x="499" d="M401 255H98Q89 255 89 265V315Q89 324 98 324H401Q410 324 410 315V265Q410 255 401 255Z" />
<glyph unicode="." glyph-name="period" horiz-adv-x="184" d="M141 56T141 37T128 4T95 -10T63 3T49 37Q49 56 62 69T95 82T127 69Z" />
<glyph unicode="/" glyph-name="slash" horiz-adv-x="373" d="M396 668L58 9Q54 0 44 0H-16Q-32 0 -24 13L313 671Q318 681 328 681H387Q393 681 395 677T396 668Z" />
<glyph unicode="0" glyph-name="zero" horiz-adv-x="600" d="M552 512T552 340T488 79T300 -10T112 79T47 340T112 601T300 690T487 601ZM473 340Q473 480 428 551Q385 617 300 617Q216 617 172 551Q125 477 125 340Q125 200 171 129Q214 63 300 63Q383 63 428
129Q473 199 473 340Z" />
<glyph unicode="1" glyph-name="one" horiz-adv-x="600" d="M277 604L132 548Q118 544 118 557V606Q118 616 128 620L290 683Q302 688 311 688H347Q357 688 357 678V69H496Q506 69 506 59V9Q506 0 496 0H129Q119 0 119 9V59Q119 69 129 69H277V604Z" />
<glyph unicode="2" glyph-name="two" horiz-adv-x="600" d="M163 69H503Q512 69 512 59V9Q512 0 503 0H88Q78 0 78 9V37Q78 107 93 149T144 227Q181 265 262 310T368 374Q431 422 431 491Q431 543 399 580Q361 623 288 623Q211 623 127 566Q115 560 111 569L89
612Q85 620 93 626Q192 690 294 690Q399 690 460 623Q507 570 507 493Q507 396 423 330Q390 303 314 261T206 189Q182 166 173 140T163 69Z" />
<glyph unicode="3" glyph-name="three" horiz-adv-x="600" d="M247 318H216Q206 318 206 328V373Q206 382 216 382H242Q308 382 346 408Q393 440 393 502Q393 557 353 592Q315 623 264 623Q192 623 122 576Q111 569 106 578L85 619Q80 629 89 634Q175 690 269
690Q348 690 402 646Q465 595 465 511Q465 395 355 355Q420 336 455 292T490 182Q490 91 419 37Q359 -10 263 -10Q151 -10 80 34Q70 41 75 50L96 94Q101 103 112 96Q176 54 258 54Q322 54 362 82Q414 119 414 188Q414 261 350 298Q314 318 247 318Z" />
<glyph unicode="4" glyph-name="four" horiz-adv-x="601" d="M435 0H377Q368 0 368 9V156H54Q44 156 44 166V209Q44 216 51 227L363 675Q370 686 383 686H435Q445 686 445 677V222H542Q552 222 552 213V166Q552 156 542 156H445V9Q445 0 435 0ZM368 568L131 222H368V568Z" />
<glyph unicode="5" glyph-name="five" horiz-adv-x="600" d="M98 323L125 671Q125 681 134 681H483Q493 681 493 671V621Q493 612 483 612H193L175 390Q199 411 232 423Q266 437 307 437Q406 437 465 373Q519 313 519 215Q519 121 459 58Q391 -10 281 -10Q159
-10 88 53Q78 58 82 68L103 113Q108 121 116 115Q153 83 189 69T281 54Q352 54 397 99Q442 146 442 214Q442 286 400 330Q360 373 297 373Q245 373 206 348Q179 331 158 304Q155 297 144 299L108 308Q98 309 98 323Z" />
<glyph unicode="6" glyph-name="six" horiz-adv-x="600" d="M307 353Q199 353 147 255Q152 170 181 123Q221 58 307 58Q372 58 411 99T451 206Q451 274 413 313T307 353ZM67 309Q67 477 128 576Q199 690 335 690Q389 690 434 678Q474 668 510 647Q518 642 514
633L492 587Q488 579 477 585Q444 602 411 611Q375 621 334 621Q235 621 186 529Q148 458 148 332Q175 371 210 392Q256 421 315 421Q422 421 480 354Q528 298 528 208Q528 107 462 46Q400 -10 306 -10Q195 -10 137 57Q67 135 67 309Z" />
<glyph unicode="7" glyph-name="seven" horiz-adv-x="600" d="M82 681H510Q520 681 520 671V627Q520 621 515 609L235 9Q230 0 220 0H156Q140 0 148 15L378 492Q395 527 443 612H143V514Q143 504 133 504H82Q72 504 72 514V671Q72 681 82 681Z" />
<glyph unicode="8" glyph-name="eight" horiz-adv-x="600" d="M463 179Q463 233 419 266T296 327Q224 302 181 268T138 180Q138 121 179 86T300 50T421 85T463 179ZM438 518Q438 573 399 601T301 630Q242 630 203 605T163 524Q163 497 175 475T211 437T255 412T304
391Q438 442 438 518ZM373 360Q411 343 434 330T485 294T526 242T540 175Q540 88 477 39T300 -10Q186 -10 123 38T60 174Q60 212 75 243T118 297T170 333T227 360Q163 389 124 426T85 524Q85 607 146 648T299 690Q386 690 450 648T515 522Q515 490 503 463T468
417T424 386T373 360Z" />
<glyph unicode="9" glyph-name="nine" horiz-adv-x="600" d="M450 427Q445 521 405 571T291 621Q225 621 186 579T146 473Q146 403 184 364T290 325Q396 325 450 427ZM530 370Q530 202 469 103Q398 -11 262 -11Q208 -11 163 1Q123 11 87 32Q79 37 83 46L105 92Q109
100 120 94Q153 77 186 68Q222 58 263 58Q362 58 411 150Q449 221 449 347Q422 308 387 287Q341 258 282 258Q175 258 117 325Q69 381 69 471Q69 572 135 633Q197 689 291 689Q402 689 460 622Q530 544 530 370Z" />
<glyph unicode=":" glyph-name="colon" horiz-adv-x="191" d="M142 37Q142 17 129 4T97 -10T65 3T51 37Q51 56 64 69T97 82T129 69T142 37ZM142 415Q142 395 129 382T97 368T65 381T51 415Q51 434 64 447T97 460T129 447T142 415Z" />
<glyph unicode=";" glyph-name="semicolon" horiz-adv-x="191" d="M146 415Q146 395 133 382T100 368T68 381T54 415Q54 434 67 447T100 460T132 447T146 415ZM155 15Q155 -19 132 -50T76 -95Q66 -98 61 -92L54 -80Q49 -72 57 -66Q87 -43 87 -25Q87 -14 69 1T51
38Q51 58 64 70T99 82Q153 82 155 15Z" />
<glyph unicode="&lt;" glyph-name="less" horiz-adv-x="614" d="M50 320V385Q50 396 59 400L543 607Q556 612 556 600V541Q556 530 546 526L134 353L546 179Q556 176 556 164V105Q556 93 543 98L59 306Q50 310 50 320Z" />
<glyph unicode="=" glyph-name="equal" horiz-adv-x="560" d="M512 198H48Q39 198 39 207V257Q39 267 48 267H512Q521 267 521 257V207Q521 198 512 198ZM512 438H48Q39 438 39 447V497Q39 507 48 507H512Q521 507 521 497V447Q521 438 512 438Z" />
<glyph unicode="&gt;" glyph-name="greater" horiz-adv-x="615" d="M564 385V320Q564 310 555 306L71 98Q58 94 58 105V164Q58 176 67 179L479 353L67 526Q58 530 58 541V600Q58 611 71 607L555 400Q564 396 564 385Z" />
<glyph unicode="?" glyph-name="question" horiz-adv-x="490" d="M243 624Q151 624 59 547Q52 540 46 549L25 590Q21 597 30 605Q122 690 247 690Q337 690 395 637Q457 583 457 495Q457 441 432 406T354 333Q300 293 282 264T261 187Q260 177 249 177H212Q203
177 200 185Q194 204 194 225Q194 276 240 324Q251 336 264 347T299 375T332 402Q381 443 381 495Q381 555 340 590Q303 624 243 624ZM272 37Q272 17 259 4T226 -10T194 3T180 37Q180 56 193 69T226 82T258 69T272 37Z" />
<glyph unicode="@" glyph-name="at" horiz-adv-x="801" d="M510 228V347Q404 342 352 324Q283 302 283 247Q283 211 313 188Q340 167 386 167Q474 167 510 228ZM425 15Q499 15 568 30T673 68Q684 76 687 65L693 47Q696 40 688 36Q647 12 573 -3T425 -19Q260 -19
155 79T49 339Q49 483 158 587T421 691Q564 691 658 610T752 393Q752 286 703 210T576 134Q521 134 515 187Q472 133 385 133Q331 133 291 159Q243 191 243 248Q243 327 345 358Q405 376 510 381Q510 447 479 476Q448 506 397 506Q337 506 283 469Q272 464 269
472L260 489Q257 496 265 502Q328 543 397 543Q462 543 505 505Q551 464 551 381V209Q551 169 583 169Q636 169 676 229T716 392Q716 513 633 585T421 657Q283 657 184 563T85 338Q85 193 180 104T425 15Z" />
<glyph unicode="A" glyph-name="A" horiz-adv-x="691" d="M345 616Q263 616 207 557Q153 495 153 394V308H537V394Q537 497 483 557Q429 616 345 616ZM617 397V9Q617 0 608 0H547Q537 0 537 9V237H153V9Q153 0 143 0H83Q73 0 73 9V397Q73 533 158 615Q230 690
345 690T533 615Q617 532 617 397Z" />
<glyph unicode="B" glyph-name="B" horiz-adv-x="633" d="M584 182Q584 92 519 46T359 0H84Q75 0 75 9V671Q75 681 84 681H306Q400 681 455 644Q528 596 528 508Q528 398 437 358V354Q508 342 546 297T584 182ZM448 496Q448 562 395 594Q358 616 309 616H155V378H299Q363
378 392 393Q448 424 448 496ZM503 191Q503 262 443 294Q409 314 314 314H155V65H343Q396 65 430 80Q503 111 503 191Z" />
<glyph unicode="C" glyph-name="C" horiz-adv-x="659" d="M401 -10Q247 -10 147 86T47 341Q47 485 151 587T403 690Q517 690 611 636Q622 630 617 621L593 571Q589 562 579 568Q490 618 401 618Q291 618 211 536T130 341Q130 219 209 141T402 62Q498 62 582 113Q590
119 596 110L620 58Q623 50 615 45Q518 -10 401 -10Z" />
<glyph unicode="D" glyph-name="D" horiz-adv-x="738" d="M691 340Q691 136 536 49Q447 0 313 0H84Q75 0 75 9V671Q75 681 84 681H328Q514 681 611 573Q691 485 691 340ZM155 613V67H306Q413 67 484 104Q609 170 609 340Q609 460 547 528Q472 613 316 613H155Z" />
<glyph unicode="E" glyph-name="E" horiz-adv-x="598" d="M84 681H553Q562 681 562 671V620Q562 610 553 610H155V376H501Q510 376 510 367V315Q510 306 501 306H155V71H553Q562 71 562 61V9Q562 0 553 0H84Q75 0 75 9V671Q75 681 84 681Z" />
<glyph unicode="F" glyph-name="F" horiz-adv-x="561" d="M155 306V9Q155 0 145 0H84Q75 0 75 9V671Q75 681 84 681H522Q531 681 531 671V620Q531 610 522 610H155V376H473Q482 376 482 367V315Q482 306 473 306H155Z" />
<glyph unicode="G" glyph-name="G" horiz-adv-x="738" d="M403 690Q517 690 611 636Q622 630 617 621L593 571Q589 562 579 568Q486 618 401 618Q289 618 210 536T130 341Q130 215 207 138T401 61Q518 61 593 124V267H388Q378 267 378 277V328Q378 338 388 338H659Q669
338 669 328V9Q669 0 659 0H603Q593 0 593 9V50Q509 -10 395 -10Q246 -10 147 83T47 341Q47 485 151 587T403 690Z" />
<glyph unicode="H" glyph-name="H" horiz-adv-x="718" d="M573 681H634Q643 681 643 671V9Q643 0 634 0H573Q563 0 563 9V306H155V9Q155 0 145 0H84Q75 0 75 9V671Q75 681 84 681H145Q155 681 155 671V377H563V671Q563 681 573 681Z" />
<glyph unicode="I" glyph-name="I" horiz-adv-x="230" d="M84 681H145Q155 681 155 671V9Q155 0 145 0H84Q75 0 75 9V671Q75 681 84 681Z" />
<glyph unicode="J" glyph-name="J" horiz-adv-x="513" d="M189 -10Q92 -10 15 53Q8 60 12 68L40 115Q46 125 54 118Q117 61 189 61Q268 61 315 109Q361 157 361 251V671Q361 681 370 681H431Q441 681 441 671V245Q441 119 367 52Q299 -10 189 -10Z" />
<glyph unicode="K" glyph-name="K" horiz-adv-x="610" d="M490 9L228 324L155 251V9Q155 0 145 0H84Q75 0 75 9V671Q75 681 84 681H145Q155 681 155 671V353L467 671Q476 681 487 681H563Q570 681 571 676T568 666L284 382L585 16Q590 11 589 6T580 0H508Q496 0 490 9Z" />
<glyph unicode="L" glyph-name="L" horiz-adv-x="533" d="M84 681H145Q155 681 155 671V71H502Q511 71 511 61V9Q511 0 502 0H84Q75 0 75 9V671Q75 681 84 681Z" />
<glyph unicode="M" glyph-name="M" horiz-adv-x="832" d="M757 671V9Q757 0 748 0H689Q680 0 680 9V542L455 173Q449 163 439 163H395Q385 163 379 173L152 542V9Q152 0 143 0H84Q75 0 75 9V671Q75 681 84 681H147Q158 681 164 671L415 255L667 671Q674 681 685
681H748Q757 681 757 671Z" />
<glyph unicode="N" glyph-name="N" horiz-adv-x="740" d="M588 129V671Q588 681 598 681H655Q665 681 665 671V9Q665 0 655 0H599Q588 0 581 10L151 550V9Q151 0 142 0H84Q75 0 75 9V671Q75 681 84 681H139Q149 681 158 671L588 129Z" />
<glyph unicode="O" glyph-name="O" horiz-adv-x="806" d="M759 486T759 339T655 91T403 -10T152 91T47 339Q47 487 151 588T403 690T654 588ZM674 225T674 339T596 534T403 615T210 534T131 339T210 145T403 64T595 144Z" />
<glyph unicode="P" glyph-name="P" horiz-adv-x="626" d="M508 457Q508 540 450 580Q408 611 340 611H155V303H329Q406 303 446 330Q508 372 508 457ZM84 681H352Q448 681 509 633Q589 571 589 457Q589 339 502 276Q444 233 342 233H155V9Q155 0 145 0H84Q75 0
75 9V671Q75 681 84 681Z" />
<glyph unicode="Q" glyph-name="Q" horiz-adv-x="806" d="M777 -97Q791 -99 785 -110L758 -161Q752 -169 742 -169Q730 -169 704 -163T635 -142T555 -115T456 -81T356 -46Q345 -41 345 -29V-4Q218 13 133 110T47 339Q47 487 151 588T403 690T654 588T759 339Q759
208 674 112T462 -2Q462 -9 471 -13Q532 -34 629 -61T777 -97ZM674 225T674 339T596 534T403 615T210 534T131 339T210 145T403 64T595 144Z" />
<glyph unicode="R" glyph-name="R" horiz-adv-x="639" d="M521 310Q478 278 416 270L606 16Q616 0 601 0H533Q520 0 514 10L326 266H155V9Q155 0 145 0H84Q75 0 75 9V671Q75 681 84 681H354Q462 681 520 642Q600 588 600 473Q600 366 521 310ZM345 613H155V333H338Q420
333 460 356Q519 390 519 472T462 589Q422 613 345 613Z" />
<glyph unicode="S" glyph-name="S" horiz-adv-x="556" d="M275 -10Q147 -10 46 55Q36 60 41 69L66 120Q69 128 79 123Q180 58 274 58Q344 58 386 89Q431 124 431 185Q431 252 344 289Q319 300 253 320T147 359Q45 409 45 507Q45 590 104 638Q169 690 287 690Q400
690 485 642Q493 636 489 628L465 578Q460 568 451 574Q370 621 283 621Q200 621 161 585Q129 556 129 510Q129 446 228 410Q239 406 315 384T429 339Q518 288 518 192T446 40Q382 -10 275 -10Z" />
<glyph unicode="T" glyph-name="T" horiz-adv-x="564" d="M13 681H551Q560 681 560 671V620Q560 610 551 610H322V9Q322 0 312 0H252Q242 0 242 9V610H13Q4 610 4 620V671Q4 681 13 681Z" />
<glyph unicode="U" glyph-name="U" horiz-adv-x="722" d="M569 278V671Q569 681 578 681H639Q649 681 649 671V269Q649 149 583 75Q506 -10 361 -10T139 75Q73 149 73 269V671Q73 681 83 681H143Q153 681 153 671V278Q153 180 204 123Q258 62 360 62Q463 62 517
123Q569 180 569 278Z" />
<glyph unicode="V" glyph-name="V" horiz-adv-x="630" d="M626 667L361 8Q356 -3 345 -3H281Q270 -3 266 8L4 667Q-3 681 11 681H75Q87 681 90 670L313 97H315L539 670Q544 681 554 681H619Q631 681 626 667Z" />
<glyph unicode="W" glyph-name="W" horiz-adv-x="1072" d="M919 248V671Q919 681 929 681H990Q999 681 999 671V248Q999 128 938 62Q872 -10 749 -10Q678 -10 623 24Q564 61 536 134Q510 63 450 24Q395 -10 324 -10Q201 -10 135 62Q73 129 73 248V671Q73 681 83
681H143Q153 681 153 671V248Q153 161 195 114Q241 64 326 64Q393 64 436 104Q496 159 496 264V671Q496 681 506 681H567Q576 681 576 671V264Q576 160 637 104Q679 64 747 64Q832 64 877 114Q919 161 919 248Z" />
<glyph unicode="X" glyph-name="X" horiz-adv-x="648" d="M375 341L645 15Q654 0 638 0H558Q548 0 542 8L325 279L106 8Q100 0 90 0H10Q3 0 1 5T3 15L275 339L7 666Q2 671 4 676T13 681H93Q102 681 109 671L325 404L538 671Q545 681 554 681H635Q642 681 644 676T642
666L375 341Z" />
<glyph unicode="Y" glyph-name="Y" horiz-adv-x="610" d="M304 378L513 671Q518 681 528 681H598Q605 681 607 676T605 666L344 299V9Q344 0 334 0H274Q264 0 264 9V299L4 666Q0 671 1 676T11 681H80Q90 681 96 671L304 378Z" />
<glyph unicode="Z" glyph-name="Z" horiz-adv-x="571" d="M13 15L420 610H24Q15 610 15 620V671Q15 681 24 681H541Q551 681 551 672Q551 668 549 665L142 71H551Q560 71 560 61V9Q560 0 551 0H21Q11 0 11 8Q11 13 13 15Z" />
<glyph unicode="[" glyph-name="bracketleft" horiz-adv-x="327" d="M288 -152H82Q72 -152 72 -143V778Q72 788 82 788H288Q298 788 298 778V730Q298 721 288 721H151V-85H288Q298 -85 298 -95V-143Q298 -152 288 -152Z" />
<glyph unicode="\" glyph-name="backslash" horiz-adv-x="276" d="M91 668L275 13Q279 0 266 0H214Q202 0 199 12L15 668Q11 681 23 681H75Q87 681 91 668Z" />
<glyph unicode="]" glyph-name="bracketright" horiz-adv-x="327" d="M245 -152H39Q30 -152 30 -143V-95Q30 -85 39 -85H176V721H39Q30 721 30 730V778Q30 788 39 788H245Q255 788 255 778V-143Q255 -152 245 -152Z" />
<glyph unicode="^" glyph-name="asciicircum" horiz-adv-x="519" d="M241 720H277Q286 720 292 711L479 420Q481 417 481 414T479 409T472 407H420Q412 407 404 416L259 645L114 416Q108 407 99 407H45Q39 407 38 411T39 420L226 711Q232 720 241 720Z" />
<glyph unicode="_" glyph-name="underscore" horiz-adv-x="484" d="M484 -139H0Q-10 -139 -10 -129V-91Q-10 -81 0 -81H484Q494 -81 494 -91V-129Q494 -139 484 -139Z" />
<glyph unicode="`" glyph-name="grave" horiz-adv-x="417" d="M133 764H183Q190 764 196 754L286 587Q287 585 288 582T289 577T287 572T281 570H244Q235 570 230 579L126 748Q117 764 133 764Z" />
<glyph unicode="a" glyph-name="a" horiz-adv-x="475" d="M232 401Q166 401 95 360Q85 354 81 363L64 400Q60 408 69 413Q139 460 241 460Q330 460 373 411Q410 369 410 289V9Q410 0 401 0H354Q345 0 345 9V25H341Q281 -10 205 -10Q138 -10 93 22Q42 59 42 123Q42
205 135 241Q202 266 337 273V288Q337 344 314 371Q288 401 232 401ZM226 48Q281 48 337 77V218Q237 214 188 200Q112 181 112 127Q112 88 145 68T226 48Z" />
<glyph unicode="b" glyph-name="b" horiz-adv-x="529" d="M82 1Q72 3 72 13V671Q72 681 82 681H136Q145 681 145 671V432Q204 460 270 460Q367 460 427 396Q485 331 485 225Q485 132 432 71Q361 -10 219 -10Q121 -10 82 1ZM145 370V56Q178 50 225 50Q324 50 374
111Q410 155 410 225Q410 307 365 354Q322 398 256 398Q196 398 145 370Z" />
<glyph unicode="c" glyph-name="c" horiz-adv-x="471" d="M290 51Q352 51 399 79Q410 87 414 77L434 40Q438 34 429 27Q374 -10 288 -10Q172 -10 107 58Q45 120 45 225Q45 313 96 374Q167 460 289 460Q369 460 427 420Q436 413 432 407L411 369Q406 360 396 366Q347
397 289 397Q207 397 159 340Q119 294 119 225Q119 148 165 99Q210 51 290 51Z" />
<glyph unicode="d" glyph-name="d" horiz-adv-x="521" d="M311 61H376V380Q327 398 277 398Q196 398 150 333Q119 288 119 225Q119 156 160 113Q211 61 311 61ZM439 0H304Q173 0 104 69Q45 126 45 224Q45 312 90 375Q154 461 273 461Q322 461 376 443V671Q376
681 385 681H439Q449 681 449 671V9Q449 0 439 0Z" />
<glyph unicode="e" glyph-name="e" horiz-adv-x="524" d="M121 258H411Q408 319 374 358Q334 401 270 401Q198 401 157 354Q124 315 121 258ZM288 50Q357 50 424 90Q435 97 439 88L458 51Q462 44 454 38Q383 -10 282 -10Q168 -10 104 63Q45 128 45 231Q45 329
105 394Q166 460 270 460Q375 460 434 388Q487 321 481 216Q481 205 469 205H121Q126 145 160 105Q206 50 288 50Z" />
<glyph unicode="f" glyph-name="f" horiz-adv-x="339" d="M248 627Q208 627 189 603Q168 578 168 516V452H303Q312 452 312 442V403Q312 394 303 394H168V9Q168 0 158 0H104Q95 0 95 9V394H37Q27 394 27 403V442Q27 452 37 452H95V523Q95 613 135 654Q170 689
233 689Q313 689 367 647Q375 642 371 634L353 597Q348 587 337 594Q295 627 248 627Z" />
<glyph unicode="g" glyph-name="g" horiz-adv-x="530" d="M175 -173T246 -173T351 -134Q385 -96 385 -22V36Q331 -9 250 -9Q159 -9 104 53Q45 120 45 226T102 398Q157 460 249 460Q325 460 384 413H387V442Q387 452 396 452H448Q458 452 458 442V-14Q458 -124
401 -180Q349 -232 245 -232Q151 -232 80 -184Q72 -179 76 -172L96 -132Q101 -123 111 -130Q175 -173 246 -173ZM257 52Q329 52 385 100V348Q321 400 258 400Q194 400 158 354Q119 306 119 227Q119 144 157 97Q194 52 257 52Z" />
<glyph unicode="h" glyph-name="h" horiz-adv-x="554" d="M146 671V375Q191 460 304 460Q388 460 435 419Q489 371 489 268V9Q489 0 479 0H426Q416 0 416 9V252Q416 333 379 367Q348 396 290 396Q210 396 172 327Q146 278 146 208V9Q146 0 137 0H82Q72 0 72 9V671Q72
681 82 681H137Q146 681 146 671Z" />
<glyph unicode="i" glyph-name="i" horiz-adv-x="218" d="M72 442Q72 452 82 452H136Q145 452 145 442V9Q145 0 136 0H82Q72 0 72 9V442ZM126 623T108 623T77 635T64 667Q64 685 77 697T108 710T139 698T152 667Q152 648 139 636Z" />
<glyph unicode="j" glyph-name="j" horiz-adv-x="217" d="M151 667Q151 648 139 636T108 623Q89 623 77 635T64 667Q64 685 76 697T108 710Q126 710 138 698T151 667ZM72 -2V442Q72 451 82 451H136Q145 451 145 442V36Q145 -71 127 -135T54 -231Q43 -235 35 -227L2
-194Q-7 -185 3 -179Q43 -154 57 -113T72 -2Z" />
<glyph unicode="k" glyph-name="k" horiz-adv-x="485" d="M376 9L209 209L145 151V9Q145 0 136 0H82Q72 0 72 9V671Q72 681 82 681H136Q145 681 145 671V231L365 443Q374 452 384 452H446Q455 452 456 446T452 435L259 256L462 15Q473 0 455 0H393Q381 0 376 9Z" />
<glyph unicode="l" glyph-name="l" horiz-adv-x="217" d="M72 671Q72 681 82 681H136Q145 681 145 671V9Q145 0 136 0H82Q72 0 72 9V671Z" />
<glyph unicode="m" glyph-name="m" horiz-adv-x="817" d="M143 398H146Q192 460 278 460Q340 460 380 430Q413 406 428 366Q448 410 488 436Q526 460 581 460Q660 460 704 416Q752 370 752 278V9Q752 0 743 0H688Q678 0 678 9V260Q678 332 648 365Q620 396 566
396Q505 396 475 348Q449 304 449 224V9Q449 0 440 0H385Q375 0 375 9V260Q375 332 345 365Q317 396 263 396Q202 396 172 348Q146 304 146 234V9Q146 0 137 0H82Q72 0 72 9V442Q72 452 82 452H133Q143 452 143 442V398Z" />
<glyph unicode="n" glyph-name="n" horiz-adv-x="554" d="M143 375H146Q191 460 304 460Q388 460 435 419Q489 371 489 268V9Q489 0 479 0H426Q416 0 416 9V252Q416 333 379 367Q348 396 290 396Q210 396 172 327Q146 278 146 208V9Q146 0 137 0H82Q72 0 72 9V442Q72
452 82 452H133Q143 452 143 442V375Z" />
<glyph unicode="o" glyph-name="o" horiz-adv-x="567" d="M117 299T117 225T162 103Q209 50 284 50T406 103Q451 151 451 225T406 347Q359 400 284 400T162 347Q117 299 117 225ZM45 123T45 225T112 392Q180 460 284 460T456 392Q523 327 523 225T456 58Q388 -10
284 -10T112 58Q45 123 45 225Z" />
<glyph unicode="p" glyph-name="p" horiz-adv-x="524" d="M145 395V71Q187 50 244 50Q316 50 362 96Q407 139 407 226Q407 306 359 352Q308 401 224 401Q193 401 145 395ZM83 448Q145 460 217 460Q340 460 411 395Q480 331 480 226T423 61Q359 -10 251 -10Q189
-10 145 10V-222Q145 -231 136 -231H82Q72 -231 72 -222V435Q72 445 83 448Z" />
<glyph unicode="q" glyph-name="q" horiz-adv-x="523" d="M378 -222V55Q333 -10 246 -10Q160 -10 106 46Q45 109 45 224Q45 318 98 381Q168 460 306 460Q378 460 438 445Q451 441 451 430V-222Q451 -231 441 -231H387Q378 -231 378 -222ZM378 216V394Q327 401
301 401Q200 401 151 338Q117 295 117 226Q117 140 158 93Q195 50 257 50Q378 50 378 216Z" />
<glyph unicode="r" glyph-name="r" horiz-adv-x="377" d="M261 393Q210 393 180 353Q146 307 146 221V9Q146 0 137 0H82Q72 0 72 9V442Q72 452 82 452H133Q143 452 143 442V387H146Q181 460 273 460Q336 460 381 424Q388 418 384 411L362 366Q357 357 347 364Q306
393 261 393Z" />
<glyph unicode="s" glyph-name="s" horiz-adv-x="410" d="M198 49Q292 49 292 117Q292 143 276 158T228 188Q216 194 178 207T119 230Q45 264 45 339Q45 396 88 428T210 461Q292 461 350 428Q358 423 355 415L335 374Q331 365 322 371Q270 400 213 400Q121 400
121 339Q121 316 135 303T176 278Q191 271 230 258T285 236Q368 197 368 123Q368 62 323 26T201 -10Q108 -10 45 28Q36 32 41 40L61 81Q66 90 74 85Q132 49 198 49Z" />
<glyph unicode="t" glyph-name="t" horiz-adv-x="353" d="M157 394V159Q157 109 172 86Q192 53 243 53Q286 53 325 81Q335 88 340 80L358 41Q362 34 354 28Q301 -10 225 -10Q150 -10 114 34Q83 73 83 150V394H30Q20 394 20 403V442Q20 452 30 452H83V539Q83 549
93 549H147Q157 549 157 539V452H314Q324 452 324 442V403Q324 394 314 394H157Z" />
<glyph unicode="u" glyph-name="u" horiz-adv-x="545" d="M65 191V442Q65 452 74 452H128Q138 452 138 442V198Q138 143 156 110Q189 55 273 55Q360 55 389 109Q407 140 407 198V442Q407 452 417 452H471Q480 452 480 442V191Q480 112 447 63Q397 -10 273 -10Q148
-10 98 63Q65 112 65 191Z" />
<glyph unicode="v" glyph-name="v" horiz-adv-x="450" d="M446 438L270 8Q265 -3 254 -3H191Q180 -3 176 8L4 438Q-3 452 11 452H69Q81 452 84 441L225 70H227L367 441Q372 452 382 452H439Q453 452 446 438Z" />
<glyph unicode="w" glyph-name="w" horiz-adv-x="795" d="M730 442V191Q730 110 703 63Q663 -10 553 -10Q465 -10 425 43Q405 67 398 85Q390 67 370 43Q330 -10 243 -10Q132 -10 92 63Q65 111 65 191V442Q65 452 74 452H128Q138 452 138 442V195Q138 139 155 105Q180
56 248 56Q320 56 345 110Q361 142 361 197V442Q361 452 371 452H425Q434 452 434 442V197Q434 145 450 110Q475 56 548 56Q615 56 640 104Q658 137 658 195V442Q658 452 668 452H721Q730 452 730 442Z" />
<glyph unicode="x" glyph-name="x" horiz-adv-x="476" d="M7 15L193 230L16 436Q11 442 13 447T22 452H90Q99 452 106 442L238 281L371 442Q378 452 387 452H452Q460 452 461 447T458 436L281 235L469 15Q480 0 462 0H396Q388 0 380 8L238 180L95 8Q89 0 79 0H14Q7
0 5 5T7 15Z" />
<glyph unicode="y" glyph-name="y" horiz-adv-x="477" d="M470 439L290 -24Q251 -122 203 -173Q138 -236 41 -232Q33 -232 33 -224V-169Q33 -162 42 -162Q44 -162 50 -162T61 -163Q115 -163 156 -117Q187 -81 210 -27L5 439Q0 452 13 452H78Q90 452 93 441L248
64L388 441Q391 452 403 452H463Q475 452 470 439Z" />
<glyph unicode="z" glyph-name="z" horiz-adv-x="403" d="M385 0H17Q1 0 11 15L280 388H24Q15 388 15 398V442Q15 452 24 452H383Q390 452 392 447T391 436L122 64H385Q394 64 394 54V9Q394 0 385 0Z" />
<glyph unicode="{" glyph-name="braceleft" horiz-adv-x="319" d="M32 292V342Q32 351 41 351H46Q89 351 110 383Q136 419 136 499L133 640Q133 709 161 744Q196 786 278 786Q288 786 288 777V736Q288 727 279 727Q238 727 218 701Q203 679 203 629L205 492Q205
407 174 365Q151 332 106 317Q148 303 174 269Q205 225 205 142L203 5Q203 -45 218 -67Q237 -94 279 -94Q288 -94 288 -103V-143Q288 -153 278 -153Q197 -153 161 -111Q133 -76 133 -6L136 134Q136 215 110 251Q88 282 46 282H41Q32 282 32 292Z" />
<glyph unicode="|" glyph-name="bar" horiz-adv-x="224" d="M84 681H139Q149 681 149 671V-209Q149 -218 139 -218H84Q75 -218 75 -209V671Q75 681 84 681Z" />
<glyph unicode="}" glyph-name="braceright" horiz-adv-x="319" d="M287 342V292Q287 282 278 282H273Q231 282 209 251Q183 215 183 134L186 -6Q186 -76 158 -111Q122 -153 41 -153Q31 -153 31 -143V-103Q31 -94 40 -94Q82 -94 101 -67Q116 -45 116 5L114 142Q114
225 145 269Q171 303 213 317Q168 332 145 365Q114 407 114 492L116 629Q116 679 101 701Q81 727 40 727Q31 727 31 736V777Q31 786 41 786Q123 786 158 744Q186 709 186 640L183 499Q183 419 209 383Q230 351 273 351H278Q287 351 287 342Z" />
<glyph unicode="~" glyph-name="asciitilde" horiz-adv-x="601" d="M412 219Q377 219 346 233T294 263T247 294T193 308Q161 308 140 291T119 238Q119 229 108 229H61Q51 229 51 238Q51 306 90 342T189 378Q225 378 257 364T308 334T355 303T408 289Q440 289 461
305T482 358Q482 368 492 368H540Q550 368 550 358Q550 290 511 255T412 219Z" />
</font>
</defs>
</svg>
